<?xml version="1.0" encoding="UTF-8"?>
<svg id="Layer_2" data-name="Layer 2" xmlns="http://www.w3.org/2000/svg" viewBox="0 0 500 500">
  <defs>
    <style>
      .cls-1 {
        fill: #fff;
      }

      .cls-2 {
        fill: none;
      }
    </style>
  </defs>
  <g id="Layer_1-2" data-name="Layer 1">
    <g>
      <path class="cls-1" d="M110.14,358.67c-82.02-86.23-92.38-204.96-1.28-295.52C189.55-17.06,323.35-12.5,400.88,72.57c85.04,93.31,64.03,209.01-10.37,286.17-20.6-17.46-43.54-30.99-69.7-40.35,4.12-5.08,7.96-9.82,11.8-14.56,13.45-16.59,26.36-33.58,34.26-53.67,17.64-44.9,5.94-94.56-29.49-127.67-25.92-24.23-56.08-36.89-91.87-35.54-56.58,2.14-105.78,43.87-117.56,99.58-6.72,31.81,.84,60.44,18.76,86.7,9.57,14.02,19.99,27.45,30.03,41.15,.86,1.18,1.74,2.34,2.98,4.01-25.75,9.34-48.73,22.73-69.57,40.28Z"/>
      <path class="cls-1" d="M120.52,376.85c21.93-19.14,46.18-32.61,73.43-40.46,3.01-.87,7.1-.09,10.07,1.27,30.28,13.94,60.36,14.14,90.64-.06,3.16-1.48,7.66-1.85,11.02-.89,26.47,7.56,49.88,20.93,70.88,38.63,.48,.4,.85,.92,2.68,2.93-13.56,12.91-27.01,25.77-40.53,38.56-23.7,22.43-47.43,44.82-71.17,67.2-1.81,1.71-3.68,3.39-5.67,4.88-9.87,7.44-17.8,7.2-26.78-1.33-31.03-29.45-61.99-58.98-92.86-88.6-7.31-7.01-14.2-14.47-21.7-22.14Z"/>
      <path class="cls-1" d="M174.9,215.94c16.81,7.86,33.99,12.89,51.99,14.5,31.99,2.86,63.5,1.59,93.32-12.3,4.78-2.23,6.63-1.35,8.34,4.19,7.07,22.95,3.79,44.86-7.92,65.41-16.82,29.54-51.86,45.26-85.69,39.09-32.81-5.98-58.9-32.43-65.01-65.78-2.81-15.31-1.04-30.08,4.96-45.11Z"/>
      <path class="cls-1" d="M252.21,140.48c23.94-.2,47.53,2.46,70.67,8.62,4.45,1.19,8.83,2.98,12.9,5.14,2.11,1.12,5.24,4.26,4.84,5.41-1.23,3.54-3.3,8.38-6.22,9.43-8.06,2.91-10.8,8.3-11.78,16.11-1.47,11.68-7.61,18.33-19.28,20.6-17.15,3.33-34.32,7.06-51.67,8.67-9.87,.92-20.19-1.57-30.14-3.39-9.95-1.82-19.75-4.54-29.52-7.23-7.4-2.04-11.78-6.91-12.87-14.84-.58-4.24-1.76-8.55-3.54-12.42-1.04-2.26-3.67-3.93-5.85-5.49-1.7-1.21-4.47-1.34-5.62-2.84-2.12-2.75-4.72-6.22-4.56-9.25,.11-2.04,4.35-4.57,7.21-5.63,27.55-10.3,56.35-12.61,85.44-12.89Z"/>
    </g>
    <rect class="cls-2" width="500" height="500"/>
  </g>
</svg>